
<svg width="100px" height="97px" viewBox="0 0 100 97" version="1.1" xmlns="http://www.w3.org/2000/svg" xmlns:xlink="http://www.w3.org/1999/xlink">
    <!-- Generator: Sketch 47.1 (45422) - http://www.bohemiancoding.com/sketch -->
    <desc>Created with Sketch.</desc>
    <defs></defs>
    <g id="Page-1" stroke="none" stroke-width="1" fill="none" fill-rule="evenodd">
        <g id="azure-dw" fill-rule="nonzero" fill="#0078D7">
            <path d="M78.875,67.1421226 C77.8472222,67.1421226 77.0138889,67.516212 76.375,68.2921011 C75.7361111,69.0679903 75.4583333,70.0932724 75.4583333,71.3679474 C75.4583333,72.6564776 75.7777778,73.6679046 76.375,74.4437937 C77.0138889,75.2196829 77.7916667,75.5937723 78.7638889,75.5937723 C79.7777778,75.5937723 80.5555556,75.2196829 81.2083333,74.4992144 C81.7916667,73.7233252 82.1111111,72.7118983 82.1111111,71.4233681 C82.1111111,70.0932724 81.7916667,68.9987145 81.2083333,68.2228253 C80.6666667,67.516212 79.8888889,67.1421226 78.875,67.1421226 Z M95.5,47.5924868 L95.4166667,47.8280246 C95.3888889,47.9111555 95.3333333,47.9942865 95.3055556,48.0497072 L95.3055556,48.0774175 C95.25,48.1466933 95.1944444,48.202114 95.1527778,48.285245 C95.1527778,48.285245 95.1527778,48.3129553 95.125,48.3129553 C95.0694444,48.3960863 95.0138889,48.4515069 94.9305556,48.5207827 L94.9027778,48.5484931 C94.8472222,48.6316241 94.7638889,48.6870447 94.6944444,48.7701757 L94.6666667,48.797886 C94.5833333,48.8533067 94.5,48.9225825 94.4166667,48.9780031 L94.3888889,49.0057135 C94.3194444,49.0611341 94.2361111,49.1442651 94.125,49.1996858 L94.0972222,49.2273961 C93.9861111,49.2828167 93.9166667,49.3520926 93.8055556,49.4075132 L93.7777778,49.4352235 C93.6666667,49.4906442 93.5694444,49.5737752 93.4583333,49.6291958 C93.4583333,49.6291958 93.4305556,49.6291958 93.4305556,49.6569062 C93.2916667,49.6984716 93.1944444,49.7816026 93.0555556,49.8370233 C92.25,50.238823 91.2638889,50.5852021 90.125,50.9038709 C90.1111111,50.9038709 90.0833333,50.9038709 90.0833333,50.9315812 C89.9444444,50.9870019 89.7777778,51.0147122 89.625,51.0424225 C89.5694444,51.0701328 89.5138889,51.0701328 89.4583333,51.0978432 C89.3333333,51.1255535 89.1944444,51.1809741 89.0555556,51.2086845 C88.9722222,51.2363948 88.9305556,51.2363948 88.8472222,51.25025 L88.4444444,51.3333809 C88.3611111,51.3610913 88.2777778,51.3610913 88.1805556,51.3888016 C88.0416667,51.4165119 87.9027778,51.4442223 87.7916667,51.4719326 C87.6944444,51.4996429 87.6111111,51.4996429 87.5,51.5273532 C87.375,51.5550636 87.2638889,51.5827739 87.125,51.6104842 C87.0138889,51.6243394 86.9166667,51.6243394 86.8055556,51.6520497 C86.6666667,51.67976 86.5694444,51.7074704 86.4305556,51.7074704 C86.3194444,51.7351807 86.2222222,51.7351807 86.0833333,51.762891 C85.9444444,51.7906013 85.8472222,51.7906013 85.7083333,51.8183117 C85.5972222,51.846022 85.4583333,51.846022 85.3333333,51.8737323 C85.1944444,51.9014427 85.0833333,51.9014427 84.9583333,51.929153 C84.8194444,51.9568633 84.6944444,51.9568633 84.5833333,51.9845736 C84.4444444,51.9984288 84.3333333,51.9984288 84.2083333,52.0261391 C84.0694444,52.0538495 83.9305556,52.0538495 83.8055556,52.0815598 C83.6666667,52.0815598 83.5555556,52.1092701 83.4305556,52.1092701 C83.2916667,52.1092701 83.1388889,52.1369804 83,52.1369804 C82.8611111,52.1369804 82.75,52.1646908 82.625,52.1646908 C82.4861111,52.1646908 82.3333333,52.1924011 82.1666667,52.1924011 C82.0277778,52.1924011 81.9305556,52.2201114 81.7916667,52.2201114 C81.625,52.2201114 81.4722222,52.2478217 81.3333333,52.2478217 C81.2222222,52.2478217 81.0972222,52.2478217 80.9861111,52.2755321 C80.8194444,52.2755321 80.6666667,52.3032424 80.4722222,52.3032424 L80.125,52.3032424 C79.9444444,52.3032424 79.75,52.3032424 79.5694444,52.3309527 L76.4027778,52.3309527 C76.2361111,52.3309527 76.0555556,52.3309527 75.8888889,52.3032424 C75.7638889,52.3032424 75.6527778,52.3032424 75.5416667,52.2755321 C75.3888889,52.2755321 75.2222222,52.2478217 75.0833333,52.2478217 C74.9583333,52.2478217 74.8472222,52.2201114 74.7083333,52.2201114 C74.5833333,52.2201114 74.4166667,52.1924011 74.2777778,52.1924011 C74.1527778,52.1924011 74.0416667,52.1646908 73.9027778,52.1646908 C73.7777778,52.1646908 73.6388889,52.1369804 73.4722222,52.1369804 C73.3472222,52.1369804 73.2361111,52.1092701 73.0972222,52.1092701 C72.9722222,52.1092701 72.8333333,52.0815598 72.6944444,52.0538495 C72.5694444,52.0261391 72.4305556,52.0261391 72.3194444,51.9984288 C72.1944444,51.9845736 72.0833333,51.9845736 71.9444444,51.9568633 C71.8194444,51.929153 71.6805556,51.929153 71.5694444,51.9014427 C71.4722222,51.8737323 71.3333333,51.8737323 71.2222222,51.846022 C71.0972222,51.8183117 70.9583333,51.8183117 70.8472222,51.7906013 C70.7361111,51.762891 70.6388889,51.762891 70.5277778,51.7351807 C70.3888889,51.7074704 70.2638889,51.67976 70.125,51.67976 C70.0138889,51.6520497 69.9166667,51.6520497 69.8333333,51.6243394 L69.4305556,51.5550636 C69.3194444,51.5273532 69.2361111,51.5273532 69.1666667,51.4996429 L68.7638889,51.4165119 C68.6805556,51.3888016 68.5972222,51.3888016 68.5138889,51.3610913 L68.1111111,51.2779603 C68.0277778,51.25025 67.9861111,51.25025 67.9027778,51.2363948 C67.7638889,51.2086845 67.6111111,51.1532638 67.4722222,51.1255535 C67.4166667,51.1255535 67.3611111,51.0978432 67.3055556,51.0978432 C67.1527778,51.0701328 66.9861111,51.0147122 66.8611111,50.9592915 C66.8333333,50.9592915 66.8055556,50.9592915 66.8055556,50.9315812 C65.3055556,50.5020711 64.0416667,50.0032852 63.0972222,49.4352235 C62.9861111,49.3520926 62.8888889,49.2966719 62.7777778,49.2273961 L62.75,49.2273961 C62.6388889,49.1442651 62.5694444,49.0888445 62.4583333,49.0057135 L62.4305556,48.9780031 C62.3472222,48.9087273 62.2638889,48.8533067 62.1944444,48.7701757 L62.1666667,48.7424654 C62.0833333,48.6593344 62,48.6039137 61.9444444,48.5207827 L61.9166667,48.5069276 C61.8333333,48.4237966 61.7916667,48.3683759 61.7361111,48.285245 L61.7361111,48.2575346 C61.6805556,48.1744037 61.625,48.1051278 61.5694444,48.0497072 L61.5694444,48.0219969 C61.5138889,47.9388659 61.4861111,47.8557349 61.4305556,47.7726039 L61.3611111,47.5370661 C61.3055556,47.3708042 61.2777778,47.2461077 61.2777778,47.0798457 C61.2777778,44.2672475 68.9722222,41.8980146 78.4861111,41.8980146 C88.0138889,41.8980146 95.7083333,44.225682 95.7083333,47.0798457 C95.5694444,47.3015284 95.5416667,47.4262248 95.5,47.5924868 Z M95.25,77.9075846 L87.4166667,77.9075846 L87.4166667,64.7590344 L90.375,64.7590344 L90.375,75.4690758 L95.25,75.4690758 L95.25,77.9075846 Z M82.2777778,79.7780317 L80.5277778,77.9768604 C80.0972222,78.0877018 79.4583333,78.1708327 78.7361111,78.1708327 C76.8888889,78.1708327 75.3333333,77.5196401 74.125,76.328096 C72.9722222,75.0949864 72.3194444,73.5154978 72.3194444,71.5064991 C72.3194444,69.4420797 72.9166667,67.7933152 74.125,66.504785 C75.3611111,65.2162548 76.8888889,64.5789173 78.875,64.5789173 C80.7222222,64.5789173 82.2777778,65.2162548 83.4305556,66.421654 C84.5833333,67.6270533 85.1666667,69.2342522 85.1666667,71.2986716 C85.1666667,73.3492358 84.5833333,75.0118554 83.375,76.3003857 L83.1111111,76.5636338 L86.4583333,79.7780317 L82.2777778,79.7780317 Z M70.6666667,75.9817169 C70.3888889,76.4805028 70.0138889,76.8823025 69.5138889,77.2009713 C69.0555556,77.5196401 68.4861111,77.7136123 67.8472222,77.852164 C67.2083333,77.9768604 66.5555556,78.0322811 65.8611111,78.0322811 C65.1666667,78.0322811 64.4444444,77.9768604 63.7916667,77.852164 C63.125,77.852164 62.5694444,77.6304814 62.1111111,77.3949436 L62.1111111,74.4437937 C62.6111111,74.9010141 63.2083333,75.2196829 63.8472222,75.4690758 C64.5,75.649193 65.1388889,75.7877446 65.6944444,75.7877446 C66.0833333,75.7877446 66.4027778,75.732324 66.6666667,75.649193 C66.9305556,75.5937723 67.1805556,75.5244965 67.3611111,75.3859449 C67.5555556,75.2473932 67.6805556,75.1226968 67.7361111,74.9287245 C67.7916667,74.7486073 67.875,74.6100557 67.875,74.4299386 C67.875,74.1528353 67.8194444,73.9172975 67.6805556,73.7233252 C67.5555556,73.5432081 67.3611111,73.3492358 67.0972222,73.1414084 C66.8333333,72.9474361 66.5,72.8227396 66.1805556,72.6287673 C65.8611111,72.5040708 65.4861111,72.3100986 65.0277778,72.1161263 C64.0138889,71.672761 63.2361111,71.16012 62.7222222,70.5920583 C62.2083333,69.9547208 61.9444444,69.2619626 61.9444444,68.3475218 C61.9444444,67.6547636 62.0833333,67.0728467 62.3194444,66.6156263 C62.5972222,66.1029853 62.9722222,65.7011855 63.4166667,65.3825168 C63.875,65.063848 64.4444444,64.7867448 65.0833333,64.6897586 C65.7222222,64.551207 66.375,64.4957863 67.0694444,64.4957863 C67.7638889,64.4957863 68.3611111,64.551207 68.8611111,64.634338 C69.375,64.6897586 69.8888889,64.8144551 70.3472222,65.0084274 L70.3472222,67.7656049 C70.1527778,67.6270533 69.8888889,67.4885016 69.6388889,67.3915155 C69.4027778,67.2806742 69.1388889,67.1975432 68.8611111,67.1144122 C68.5972222,67.0728467 68.2777778,66.9897158 68.0277778,66.9342951 C67.7638889,66.8788744 67.5277778,66.8788744 67.25,66.8788744 C66.9305556,66.8788744 66.6111111,66.8788744 66.3472222,66.9342951 C66.0833333,66.9897158 65.8333333,67.0728467 65.6527778,67.1975432 C65.4583333,67.3360948 65.3194444,67.4746465 65.1944444,67.5716326 C65.0555556,67.7656049 65.0555556,67.8903014 65.0555556,68.0842737 C65.0555556,68.2643908 65.1111111,68.4583631 65.25,68.6661905 C65.375,68.8601628 65.5138889,68.9987145 65.75,69.1788316 C65.9444444,69.3173832 66.2083333,69.4975004 66.5277778,69.636052 C66.8611111,69.7746036 67.1805556,69.9547208 67.5555556,70.0932724 C68.0555556,70.2733895 68.5694444,70.5504928 68.9722222,70.7860306 C69.4305556,71.0492787 69.75,71.2986716 70.0694444,71.6173404 C70.3888889,71.9360091 70.5833333,72.2546779 70.7638889,72.7118983 C70.9027778,73.0859877 71.0416667,73.5432081 71.0416667,74.125125 C71.0416667,74.8178832 70.9027778,75.4690758 70.6666667,75.9817169 Z M78.3611111,39.7781745 C66.4305556,39.7781745 56.7222222,43.2835309 56.7222222,47.5924868 L56.7222222,89.1579774 C56.7222222,93.4115126 66.2638889,96.916869 78.0416667,96.9722897 L78.0416667,97 L78.3611111,97 C90.3194444,97 100,93.4669333 100,89.1856878 L100,47.5924868 C100,43.2281103 90.2916667,39.7781745 78.3611111,39.7781745 Z M43.6111111,65.8674475 L53.1805556,65.8674475 L53.1805556,56.3073847 L43.6111111,56.3073847 L43.6111111,65.8674475 Z M30.1111111,52.9128696 L39.6944444,52.9128696 L39.6944444,43.3666619 L30.1111111,43.3666619 L30.1111111,52.9128696 Z M30.1111111,65.8674475 L39.6944444,65.8674475 L39.6944444,56.3073847 L30.1111111,56.3073847 L30.1111111,65.8674475 Z M24.0833333,39.9721468 L33.6527778,39.9721468 L33.6527778,30.412084 L24.0833333,30.412084 L24.0833333,39.9721468 Z M16.4861111,52.9128696 L26.0694444,52.9128696 L26.0694444,43.3666619 L16.4861111,43.3666619 L16.4861111,52.9128696 Z M16.4861111,65.8674475 L26.0694444,65.8674475 L26.0694444,56.3073847 L16.4861111,56.3073847 L16.4861111,65.8674475 Z M61.0138889,40.581774 C63.0416667,39.6950436 65.4583333,39.0299957 68.0833333,38.545065 L68.0833333,25.8121697 L75.1388889,25.8121697 L75.1388889,19.9791458 L37.7083333,0 L0,19.9791458 L0,25.8121697 L7.69444444,25.8121697 L7.69444444,66.1861163 L14.1388889,66.1861163 L14.1388889,25.8121697 L61.0138889,25.8121697 L61.0138889,40.581774 Z" id="Shape"></path>
        </g>
    </g>
</svg>